# xmcd
#
# Track frame offsets:
#	150
#	20436
#	35751
#	50028
#	61647
#	75418
#	97373
#	114935
#	135903
#	152172
#	174698
#	199139
#	230835
#	265168
#	302222
#
# Disc length: 4427 seconds
#
# Revision: 0
# Processed by: cddbd v1.5.2PL0 Copyright (c) Steve Scherf et al.
# Submitted via: EZCDAudioConverter 2.1.7.1
#
DISCID=cb11490f
DTITLE=V/A - Echoes
DYEAR=2013
DGENRE=MOJO
TTITLE0=Tame Impala - Mind Mischief
TTITLE1=Voice Of The Seven Thunders - Kommune
TTITLE2=Temples - Shelter Song
TTITLE3=Django Django - Hand Of Man
TTITLE4=The Limiñanas - Crystal Anis
TTITLE5=Moon Duo - Sleepwalker
TTITLE6=Toy - The Reasons Why
TTITLE7=Unknown Mortal Orchestra - From The Sun
TTITLE8=Psychic Ills - Mind Daze
TTITLE9=Animal Collective - Wide Eyed
TTITLE10=Teeth Of The Sea - A.C.R.O.N.Y.M.
TTITLE11=Wooden Shjips - Flight
TTITLE12=Mugstar - Sunburnt Impedance Machine
TTITLE13=Zombi - Shrunken Heads
TTITLE14=Carlton Melton - Photos Of Photos
EXTD=
EXTT0=
EXTT1=
EXTT2=
EXTT3=
EXTT4=
EXTT5=
EXTT6=
EXTT7=
EXTT8=
EXTT9=
EXTT10=
EXTT11=
EXTT12=
EXTT13=
EXTT14=
PLAYORDER=
